<svg id="upLogo" width="40px" height="45px" viewBox="45 250 240 240">
  <g>
    <path fill-rule="evenodd" clip-rule="evenodd" fill="#264550" d="M184.14,254.72l-20.664-20.664l-8.559-8.559l-8.559,8.558
		l-20.665,20.665H44.737v191.137h220.36V254.72H184.14z"/>
    <g>
      <path fill-rule="evenodd" clip-rule="evenodd" fill="#FFFFFF" d="M179.126,266.824l-24.209-24.209v-0.001l-24.21,24.21H56.841
			v166.93h94.086v-12.104h-81.98v-142.72h66.773l19.194-19.195l0.002-0.001v0.003l19.192,19.193h66.778v142.72H173.91v-24.19h9.138
			c3.71,0,7.001-1.441,9.888-4.345c2.884-2.857,4.329-6.179,4.329-9.896v-35.964c0-3.55-1.488-6.872-4.454-10.012
			c-2.895-3.141-6.147-4.707-9.763-4.707h-6.797c-3.619,0-6.833,1.491-9.639,4.462c-2.729,2.887-4.07,6.148-4.07,9.758
			l-0.001,74.895l11.369,12.104h79.084v-166.93H179.126z M173.91,340.939h11.608v48.345H173.91V340.939z"/>
      <polygon fill-rule="evenodd" clip-rule="evenodd" fill="#FFFFFF" points="112.569,302.999 112.569,321.819 131.375,302.999 		"/>
      <polygon fill-rule="evenodd" clip-rule="evenodd" fill="#FFFFFF" points="112.569,397.58 131.375,397.58 131.375,311.899
			112.569,330.714 		"/>
      <polygon fill-rule="evenodd" clip-rule="evenodd" fill="#FFFFFF" points="162.542,333.892 173.91,322.533 173.91,302.999
			138.821,302.999 138.821,397.58 150.927,397.58 150.927,324.709 150.927,311.279 162.542,311.279 		"/>
    </g>
  </g>

</svg>
